<?xml version="1.0" encoding="UTF-8" standalone="no"?>
<!DOCTYPE svg PUBLIC "-//W3C//DTD SVG 1.1//EN" "http://www.w3.org/Graphics/SVG/1.1/DTD/svg11.dtd">
<svg xmlns="http://www.w3.org/2000/svg" xmlns:xlink="http://www.w3.org/1999/xlink" version="1.1" width="500" height="500" viewBox="0 0 500 500" xml:space="preserve">
<desc>Created with Fabric.js 3.6.3</desc>
<defs>
</defs>
<g transform="matrix(1.0259661467179007 0 0 1.0259661467179007 250 250)">
<path style="stroke: none; stroke-width: 0; stroke-dasharray: none; stroke-linecap: butt; stroke-dashoffset: 0; stroke-linejoin: miter; stroke-miterlimit: 4; fill: rgb(32,178,255); fill-rule: nonzero; opacity: 1;" transform=" translate(-256, -256)" d="M 399.3 232.8 c 0 -1.2 0.2 -2.4 0.2 -3.6 c 0 -64.3 -52.8 -117.2 -116.8 -117.2 c -46.1 0 -85.8 27.9 -104.4 67 c -8.1 -4.1 -17.1 -6.4 -26.8 -6.4 c -29.6 0 -54.1 23.7 -58.9 52 C 57.4 236.8 32 268.8 32 308.4 c 0 49.8 40.1 91.6 89.6 91.6 H 398 c 45 0 82 -38.9 82 -84.3 C 480 270.1 444.6 232.9 399.3 232.8 z" stroke-linecap="round"/>
</g>
<g transform="matrix(1.5354032938981985 0 0 1.5354032938981985 250 283.5)">
<path style="stroke: none; stroke-width: 0; stroke-dasharray: none; stroke-linecap: butt; stroke-dashoffset: 0; stroke-linejoin: miter; stroke-miterlimit: 4; fill: rgb(255,255,255); fill-rule: evenodd; opacity: 1;" transform=" translate(-50.000750000000004, -49.99974999999998)" d="m 43.758 35.035 c -5.4258 8.2812 -19.77 27.465 -15.328 34.695 c 5.9258 9.6445 37.492 10.605 43.258 0 c 4.043 -7.4336 -9.9414 -26.43 -15.328 -34.695 c -0.18359 -0.28125 -0.49609 -0.41406 -0.82812 -0.35547 c -0.51953 0.09375 -1.0859 0.17578 -1.6836 0.23828 c -1.1602 0.125 -2.4453 0.19531 -3.7891 0.19531 s -2.6289 -0.070312 -3.7891 -0.19531 c -0.60156 -0.066407 -1.168 -0.14453 -1.6875 -0.23828 c -0.32812 -0.058594 -0.64062 0.074218 -0.82422 0.35547 z m -27.816 44.129 c 0.36328 0.42578 0.31641 1.0664 -0.11328 1.4336 c -0.42578 0.36328 -1.0664 0.31641 -1.4336 -0.11328 c -3.5781 -4.1758 -6.4336 -8.9844 -8.375 -14.238 c -1.8711 -5.0625 -2.8945 -10.535 -2.8945 -16.246 c 0 -5.6406 1 -11.055 2.832 -16.074 c 1.5234 -4.1719 3.6211 -8.0703 6.1992 -11.59 l -0.60547 0.21875 c -0.52734 0.1875 -1.1094 -0.085938 -1.2969 -0.61328 s 0.085938 -1.1094 0.61328 -1.2969 l 3.957 -1.4258 c 0.52734 -0.1875 1.1094 0.085938 1.2969 0.61328 c 0.058594 0.16016 0.070312 0.32422 0.050781 0.48047 l -0.58203 4.168 c -0.078125 0.55469 -0.58984 0.94531 -1.1484 0.86719 c -0.55469 -0.078125 -0.94531 -0.58984 -0.86719 -1.1484 l 0.0625 -0.44531 c -2.3945 3.3086 -4.3477 6.9609 -5.7695 10.863 c -1.75 4.793 -2.7031 9.9727 -2.7031 15.383 c 0 5.4688 0.97656 10.707 2.7656 15.547 c 1.8594 5.0234 4.5898 9.625 8.0117 13.617 z m 4.8945 -63.223 c -0.42578 0.36328 -1.0664 0.31641 -1.4336 -0.11328 c -0.36328 -0.42578 -0.31641 -1.0664 0.11328 -1.4336 c 4.1758 -3.5781 8.9844 -6.4336 14.238 -8.375 c 5.0625 -1.8711 10.535 -2.8945 16.246 -2.8945 c 5.6875 0 11.145 1.0156 16.191 2.875 c 4.0938 1.5078 7.9219 3.5703 11.391 6.1016 l -0.19141 -0.51172 c -0.19922 -0.52344 0.066406 -1.1133 0.59375 -1.3086 c 0.52344 -0.19922 1.1133 0.066406 1.3086 0.59375 l 1.4844 3.9375 c 0.19922 0.52344 -0.066406 1.1133 -0.59375 1.3086 c -0.16016 0.058594 -0.32422 0.078125 -0.48047 0.058594 l -4.1758 -0.51953 c -0.55859 -0.066406 -0.95703 -0.57422 -0.88672 -1.1328 c 0.066406 -0.55859 0.57422 -0.95703 1.1328 -0.88672 l 0.55859 0.070313 c -3.3008 -2.3984 -6.9453 -4.3594 -10.84 -5.793 c -4.8242 -1.7852 -10.043 -2.7539 -15.492 -2.7539 c -5.4688 0 -10.707 0.97656 -15.547 2.7656 c -5.0234 1.8594 -9.625 4.5898 -13.617 8.0117 z m 63.223 4.8945 c -0.36328 -0.42578 -0.31641 -1.0664 0.11328 -1.4336 c 0.42578 -0.36328 1.0664 -0.31641 1.4336 0.11328 c 3.5781 4.1758 6.4336 8.9844 8.375 14.238 c 1.8711 5.0625 2.8945 10.535 2.8945 16.246 c 0 5.6875 -1.0156 11.141 -2.8711 16.191 c -1.5039 4.082 -3.5547 7.8945 -6.0703 11.355 l 0.46094 -0.17969 c 0.52344 -0.20313 1.1133 0.058593 1.3125 0.58203 c 0.20312 0.52344 -0.058593 1.1133 -0.58203 1.3125 l -3.9258 1.5117 c -0.52344 0.20312 -1.1133 -0.058594 -1.3125 -0.58203 c -0.0625 -0.16016 -0.082031 -0.32422 -0.0625 -0.48047 l 0.48828 -4.1797 c 0.0625 -0.55859 0.56641 -0.96094 1.125 -0.89453 c 0.55859 0.0625 0.96094 0.56641 0.89453 1.125 l -0.074219 0.61719 c 2.4141 -3.3164 4.3867 -6.9727 5.8281 -10.891 c 1.7773 -4.8242 2.7461 -10.043 2.7461 -15.488 c 0 -5.4688 -0.97656 -10.707 -2.7656 -15.547 c -1.8555 -5.0234 -4.5859 -9.625 -8.0078 -13.617 z m -4.8945 63.223 c 0.42578 -0.36328 1.0664 -0.31641 1.4336 0.11328 c 0.36328 0.42578 0.31641 1.0664 -0.11328 1.4336 c -4.1758 3.5781 -8.9844 6.4336 -14.238 8.375 c -5.0625 1.8711 -10.535 2.8945 -16.246 2.8945 c -5.6914 0 -11.148 -1.0156 -16.199 -2.875 c -4.0508 -1.4922 -7.8398 -3.5273 -11.281 -6.0234 l 0.15625 0.39063 c 0.20703 0.51953 -0.046875 1.1094 -0.57031 1.3164 c -0.51953 0.20703 -1.1133 -0.046875 -1.3164 -0.57031 l -1.5586 -3.9062 c -0.20703 -0.51953 0.046875 -1.1133 0.57031 -1.3164 c 0.15625 -0.0625 0.32031 -0.082031 0.47656 -0.066406 l 4.1836 0.44141 c 0.55859 0.058594 0.96484 0.55469 0.90625 1.1133 c -0.058594 0.55859 -0.55469 0.96484 -1.1133 0.90625 l -0.70312 -0.074218 c 3.332 2.4375 7.0117 4.4258 10.949 5.875 c 4.8281 1.7773 10.047 2.75 15.496 2.75 c 5.4688 0 10.707 -0.97656 15.547 -2.7656 c 5.0273 -1.8594 9.6289 -4.5898 13.621 -8.0117 z m -28.297 -17.535 v 0.30469 c 0 0.44922 -0.36328 0.81641 -0.81641 0.81641 c -0.44922 0 -0.81641 -0.36328 -0.81641 -0.81641 v -0.29297 c 0 -0.28125 -0.17969 -0.51953 -0.44922 -0.60156 c -0.33203 -0.097656 -0.64453 -0.23047 -0.94141 -0.40234 c -0.67578 -0.39062 -1.2422 -0.95703 -1.6406 -1.6367 c -0.22656 -0.38672 -0.09375 -0.88672 0.29688 -1.1133 c 0.38672 -0.22656 0.88672 -0.09375 1.1133 0.29688 c 0.25391 0.4375 0.61328 0.80078 1.0391 1.043 c 0.41016 0.23438 0.88281 0.36719 1.3828 0.35547 c 1.2617 -0.023437 2.0898 -0.74609 2.4609 -1.6719 c 0.16016 -0.39453 0.23828 -0.82422 0.23828 -1.2539 c 0 -0.42969 -0.078125 -0.85547 -0.23828 -1.2422 c -0.375 -0.91406 -1.2266 -1.6289 -2.582 -1.6484 c -2.0977 -0.035156 -3.4219 -1.2539 -3.9844 -2.7891 c -0.21094 -0.57422 -0.30859 -1.1953 -0.30078 -1.8203 c 0.011719 -0.62109 0.13281 -1.2422 0.35938 -1.8086 c 0.47656 -1.1758 1.4023 -2.1406 2.7734 -2.4961 c 0.27734 -0.074219 0.46875 -0.31641 0.46875 -0.60547 v -0.26562 c 0 -0.44922 0.36328 -0.81641 0.81641 -0.81641 c 0.44922 0 0.81641 0.36328 0.81641 0.81641 v 0.32812 c 0 0.27734 0.17188 0.51172 0.43359 0.59766 c 0.33984 0.10938 0.66406 0.25781 0.96094 0.44531 c 0.66406 0.41406 1.2148 0.99609 1.5859 1.6914 c 0.21094 0.39453 0.066406 0.88672 -0.33203 1.1016 c -0.39453 0.21094 -0.89062 0.066407 -1.1016 -0.33203 c -0.24219 -0.44531 -0.58984 -0.82031 -1.0078 -1.082 c -0.40234 -0.25 -0.87109 -0.39844 -1.3711 -0.40625 c -1.3047 -0.023438 -2.1523 0.69922 -2.5312 1.6328 c -0.15625 0.38672 -0.23828 0.80469 -0.24609 1.2227 c -0.007812 0.41797 0.0625 0.83984 0.20312 1.2344 c 0.34766 0.94922 1.1719 1.7031 2.4805 1.7266 c 2.1133 0.035156 3.457 1.1836 4.0586 2.6562 c 0.24219 0.58594 0.35938 1.2227 0.35938 1.8594 s -0.12109 1.2734 -0.35547 1.8555 c -0.46484 1.1562 -1.3672 2.1172 -2.6953 2.5039 c -0.25781 0.09375 -0.4375 0.33203 -0.4375 0.61328 z m 5.2969 -33.824 c 2.4844 -3.1328 6.3438 -6.0625 6.4336 -9.5508 c 0.042969 -1.582 -4.5 1.2734 -6.8828 1.2734 c -1.9922 0 -3.6641 -1.3086 -5.6562 -1.2734 c -1.8984 0.035156 -3.3477 1.4727 -5.2461 1.4727 c -2.5391 0 -8.3398 -3.0078 -7.293 -1.4727 l 6.4688 9.5195 c 0.125 0.18359 0.29297 0.29688 0.51172 0.33984 c 0.57812 0.11719 1.2305 0.21484 1.9414 0.29297 c 1.082 0.11719 2.3086 0.18359 3.6172 0.18359 s 2.5352 -0.066406 3.6172 -0.18359 c 0.74219 -0.082031 1.4219 -0.18359 2.0156 -0.30859 c 0.19141 -0.039063 0.34766 -0.13672 0.47266 -0.29297 z" stroke-linecap="round"/>
</g>
</svg>
